<?xml version="1.0" encoding="UTF-8" standalone="no"?>
<!DOCTYPE svg PUBLIC "-//W3C//DTD SVG 1.1//EN"
 "http://www.w3.org/Graphics/SVG/1.1/DTD/svg11.dtd">
<!-- Generated by graphviz version 2.42.4 (0)
 -->
<!-- Title: G Pages: 1 -->
<svg width="473pt" height="423pt"
 viewBox="0.00 0.00 473.00 423.00" xmlns="http://www.w3.org/2000/svg" xmlns:xlink="http://www.w3.org/1999/xlink">
<g id="graph0" class="graph" transform="scale(1 1) rotate(0) translate(18 405)">
<title>G</title>
<polygon fill="white" stroke="transparent" points="-18,18 -18,-405 455,-405 455,18 -18,18"/>
<!-- source -->
<g id="node1" class="node">
<title>source</title>
<path fill="#f8fafc" stroke="#64748b" d="M240,-387C240,-387 169,-387 169,-387 163,-387 157,-381 157,-375 157,-375 157,-359 157,-359 157,-353 163,-347 169,-347 169,-347 240,-347 240,-347 246,-347 252,-353 252,-359 252,-359 252,-375 252,-375 252,-381 246,-387 240,-387"/>
<text text-anchor="middle" x="204.5" y="-370.2" font-family="Arial" font-size="11.00" fill="#0f172a">SourceTree</text>
<text text-anchor="middle" x="204.5" y="-358.2" font-family="Arial" font-size="11.00" fill="#0f172a">commit + push</text>
</g>
<!-- github -->
<g id="node2" class="node">
<title>github</title>
<path fill="#f8fafc" stroke="#64748b" d="M221.5,-306C221.5,-306 187.5,-306 187.5,-306 181.5,-306 175.5,-300 175.5,-294 175.5,-294 175.5,-282 175.5,-282 175.5,-276 181.5,-270 187.5,-270 187.5,-270 221.5,-270 221.5,-270 227.5,-270 233.5,-276 233.5,-282 233.5,-282 233.5,-294 233.5,-294 233.5,-300 227.5,-306 221.5,-306"/>
<text text-anchor="middle" x="204.5" y="-285.2" font-family="Arial" font-size="11.00" fill="#0f172a">GitHub</text>
</g>
<!-- source&#45;&gt;github -->
<g id="edge1" class="edge">
<title>source&#45;&gt;github</title>
<path fill="none" stroke="#64748b" d="M204.5,-346.97C204.5,-336.83 204.5,-324.26 204.5,-313.42"/>
<polygon fill="#64748b" stroke="#64748b" points="206.95,-313.24 204.5,-306.24 202.05,-313.24 206.95,-313.24"/>
</g>
<!-- render -->
<g id="node3" class="node">
<title>render</title>
<path fill="#f8fafc" stroke="#64748b" d="M79,-220C79,-220 12,-220 12,-220 6,-220 0,-214 0,-208 0,-208 0,-192 0,-192 0,-186 6,-180 12,-180 12,-180 79,-180 79,-180 85,-180 91,-186 91,-192 91,-192 91,-208 91,-208 91,-214 85,-220 79,-220"/>
<text text-anchor="middle" x="45.5" y="-203.2" font-family="Arial" font-size="11.00" fill="#0f172a">Render</text>
<text text-anchor="middle" x="45.5" y="-191.2" font-family="Arial" font-size="11.00" fill="#0f172a">build + deploy</text>
</g>
<!-- github&#45;&gt;render -->
<g id="edge2" class="edge">
<title>github&#45;&gt;render</title>
<path fill="none" stroke="#64748b" d="M175.34,-271.23C150.69,-257.89 115.07,-238.63 87.37,-223.65"/>
<polygon fill="#64748b" stroke="#64748b" points="88.19,-221.31 80.87,-220.13 85.86,-225.62 88.19,-221.31"/>
<text text-anchor="middle" x="177" y="-242.8" font-family="Arial" font-size="9.00" fill="#334155">normal app changes</text>
</g>
<!-- cm -->
<g id="node8" class="node">
<title>cm</title>
<path fill="#f8fafc" stroke="#64748b" d="M425,-220C425,-220 304,-220 304,-220 298,-220 292,-214 292,-208 292,-208 292,-192 292,-192 292,-186 298,-180 304,-180 304,-180 425,-180 425,-180 431,-180 437,-186 437,-192 437,-192 437,-208 437,-208 437,-214 431,-220 425,-220"/>
<text text-anchor="middle" x="364.5" y="-203.2" font-family="Arial" font-size="11.00" fill="#0f172a">Codemagic</text>
<text text-anchor="middle" x="364.5" y="-191.2" font-family="Arial" font-size="11.00" fill="#0f172a">native&#45;shell changes only</text>
</g>
<!-- github&#45;&gt;cm -->
<g id="edge7" class="edge">
<title>github&#45;&gt;cm</title>
<path fill="none" stroke="#64748b" d="M233.85,-271.23C258.76,-257.84 294.8,-238.46 322.72,-223.46"/>
<polygon fill="#64748b" stroke="#64748b" points="323.9,-225.6 328.91,-220.13 321.58,-221.29 323.9,-225.6"/>
<text text-anchor="middle" x="320" y="-242.8" font-family="Arial" font-size="9.00" fill="#334155">native changes</text>
</g>
<!-- hosted -->
<g id="node4" class="node">
<title>hosted</title>
<path fill="#f8fafc" stroke="#64748b" d="M242.5,-130C242.5,-130 140.5,-130 140.5,-130 134.5,-130 128.5,-124 128.5,-118 128.5,-118 128.5,-102 128.5,-102 128.5,-96 134.5,-90 140.5,-90 140.5,-90 242.5,-90 242.5,-90 248.5,-90 254.5,-96 254.5,-102 254.5,-102 254.5,-118 254.5,-118 254.5,-124 248.5,-130 242.5,-130"/>
<text text-anchor="middle" x="191.5" y="-113.2" font-family="Arial" font-size="11.00" fill="#0f172a">wiw.czielerworks.app</text>
<text text-anchor="middle" x="191.5" y="-101.2" font-family="Arial" font-size="11.00" fill="#0f172a">current hosted app</text>
</g>
<!-- render&#45;&gt;hosted -->
<g id="edge3" class="edge">
<title>render&#45;&gt;hosted</title>
<path fill="none" stroke="#64748b" d="M77.18,-179.91C99.66,-166.36 129.94,-148.11 153.68,-133.79"/>
<polygon fill="#64748b" stroke="#64748b" points="155.15,-135.77 159.88,-130.06 152.62,-131.57 155.15,-135.77"/>
</g>
<!-- browser -->
<g id="node5" class="node">
<title>browser</title>
<path fill="#f8fafc" stroke="#64748b" d="M224,-38C224,-38 159,-38 159,-38 153,-38 147,-32 147,-26 147,-26 147,-14 147,-14 147,-8 153,-2 159,-2 159,-2 224,-2 224,-2 230,-2 236,-8 236,-14 236,-14 236,-26 236,-26 236,-32 230,-38 224,-38"/>
<text text-anchor="middle" x="191.5" y="-17.2" font-family="Arial" font-size="11.00" fill="#0f172a">Web browser</text>
</g>
<!-- hosted&#45;&gt;browser -->
<g id="edge4" class="edge">
<title>hosted&#45;&gt;browser</title>
<path fill="none" stroke="#64748b" d="M191.5,-89.91C191.5,-76.82 191.5,-59.35 191.5,-45.28"/>
<polygon fill="#64748b" stroke="#64748b" points="193.95,-45.27 191.5,-38.27 189.05,-45.27 193.95,-45.27"/>
</g>
<!-- shell -->
<g id="node6" class="node">
<title>shell</title>
<path fill="#f8fafc" stroke="#64748b" d="M357.5,-40C357.5,-40 285.5,-40 285.5,-40 279.5,-40 273.5,-34 273.5,-28 273.5,-28 273.5,-12 273.5,-12 273.5,-6 279.5,0 285.5,0 285.5,0 357.5,0 357.5,0 363.5,0 369.5,-6 369.5,-12 369.5,-12 369.5,-28 369.5,-28 369.5,-34 363.5,-40 357.5,-40"/>
<text text-anchor="middle" x="321.5" y="-23.2" font-family="Arial" font-size="11.00" fill="#0f172a">Installed iOS</text>
<text text-anchor="middle" x="321.5" y="-11.2" font-family="Arial" font-size="11.00" fill="#0f172a">Capacitor shell</text>
</g>
<!-- hosted&#45;&gt;shell -->
<g id="edge5" class="edge">
<title>hosted&#45;&gt;shell</title>
<path fill="none" stroke="#64748b" d="M219.71,-89.91C239.55,-76.47 266.22,-58.42 287.29,-44.16"/>
<polygon fill="#64748b" stroke="#64748b" points="288.92,-46.01 293.35,-40.06 286.18,-41.95 288.92,-46.01"/>
<text text-anchor="middle" x="274.5" y="-62.8" font-family="Arial" font-size="9.00" fill="#334155">HTTPS</text>
</g>
<!-- version -->
<g id="node7" class="node">
<title>version</title>
<path fill="#f8fafc" stroke="#64748b" d="M244,-220C244,-220 139,-220 139,-220 133,-220 127,-214 127,-208 127,-208 127,-192 127,-192 127,-186 133,-180 139,-180 139,-180 244,-180 244,-180 250,-180 256,-186 256,-192 256,-192 256,-208 256,-208 256,-214 250,-220 244,-220"/>
<text text-anchor="middle" x="191.5" y="-203.2" font-family="Arial" font-size="11.00" fill="#0f172a">Supabase app_config</text>
<text text-anchor="middle" x="191.5" y="-191.2" font-family="Arial" font-size="11.00" fill="#0f172a">current_version</text>
</g>
<!-- version&#45;&gt;hosted -->
<g id="edge6" class="edge">
<title>version&#45;&gt;hosted</title>
<path fill="none" stroke="#64748b" d="M191.5,-179.91C191.5,-167.45 191.5,-151.03 191.5,-137.34"/>
<polygon fill="#64748b" stroke="#64748b" points="193.95,-137.06 191.5,-130.06 189.05,-137.06 193.95,-137.06"/>
<text text-anchor="middle" x="219" y="-152.8" font-family="Arial" font-size="9.00" fill="#334155">update check</text>
</g>
<!-- asc -->
<g id="node9" class="node">
<title>asc</title>
<path fill="#f8fafc" stroke="#64748b" d="M411,-130C411,-130 308,-130 308,-130 302,-130 296,-124 296,-118 296,-118 296,-102 296,-102 296,-96 302,-90 308,-90 308,-90 411,-90 411,-90 417,-90 423,-96 423,-102 423,-102 423,-118 423,-118 423,-124 417,-130 411,-130"/>
<text text-anchor="middle" x="359.5" y="-113.2" font-family="Arial" font-size="11.00" fill="#0f172a">App Store Connect</text>
<text text-anchor="middle" x="359.5" y="-101.2" font-family="Arial" font-size="11.00" fill="#0f172a">TestFlight / App Store</text>
</g>
<!-- cm&#45;&gt;asc -->
<g id="edge8" class="edge">
<title>cm&#45;&gt;asc</title>
<path fill="none" stroke="#64748b" d="M363.42,-179.91C362.71,-167.45 361.77,-151.03 361,-137.34"/>
<polygon fill="#64748b" stroke="#64748b" points="363.43,-136.91 360.58,-130.06 358.53,-137.19 363.43,-136.91"/>
</g>
<!-- asc&#45;&gt;shell -->
<g id="edge9" class="edge">
<title>asc&#45;&gt;shell</title>
<path fill="none" stroke="#64748b" d="M351.25,-89.91C345.78,-77.22 338.52,-60.42 332.55,-46.58"/>
<polygon fill="#64748b" stroke="#64748b" points="334.75,-45.51 329.73,-40.06 330.26,-47.46 334.75,-45.51"/>
<text text-anchor="middle" x="380" y="-62.8" font-family="Arial" font-size="9.00" fill="#334155">install/update shell</text>
</g>
</g>
</svg>
